<svg xmlns="http://www.w3.org/2000/svg" fill="none" viewBox="0 0 73 69"><rect width="67" height="57" x="3" fill="#0F052F" rx="10"/><circle cx="36.808" cy="30.987" r="26.05" fill="#3CCDD7"/><circle cx="36.808" cy="30.987" r="26.05" fill="url(#paint0_linear)"/><path fill="#43D9B8" d="M48.29 26.65L36.969 49.207l-1.676 1.678-1.85.521-2.949.349-3.412-1.097-1.33-1.445 11.206-22.556 11.334-.005z"/><path fill="url(#paint1_linear)" d="M48.29 26.65L36.969 49.207l-1.676 1.678-1.85.521-2.949.349-3.412-1.097-1.33-1.445 11.206-22.556 11.334-.005z"/><g filter="url(#filter0_d)"><path fill="#3CCDD7" d="M21.984 49.212l-11.22-22.601 11.209-.005 11.366 22.601c1.247 1.682 2.075 1.354 3.63-.002-6.341 9.011-12.633 3.76-14.985.008z"/></g><path fill="#43D9B8" d="M25.356 26.686l11.328 22.566 1.676 1.679 1.851.522 2.95.348 3.414-1.098 1.331-1.445L36.694 26.69l-11.338-.005z"/><path fill="url(#paint2_linear)" d="M25.356 26.686l11.328 22.566 1.676 1.679 1.851.522 2.95.348 3.414-1.098 1.331-1.445L36.694 26.69l-11.338-.005z"/><g filter="url(#filter1_d)"><path fill="#3CCDD7" d="M51.675 49.259L62.9 26.646l-11.214-.006-11.372 22.613c-1.247 1.683-2.075 1.355-3.63-.002 6.343 9.016 12.637 3.762 14.991.008z"/></g><defs><linearGradient id="paint0_linear" x1="36.853" x2="36.853" y1="26.8" y2="6.7" gradientUnits="userSpaceOnUse"><stop stop-color="#0F052F"/><stop offset=".234" stop-color="#32294D" stop-opacity=".855"/><stop offset="1" stop-color="#fff" stop-opacity="0"/></linearGradient><linearGradient id="paint1_linear" x1="37.018" x2="26.506" y1="33.306" y2="56.7" gradientUnits="userSpaceOnUse"><stop stop-color="#0F052F"/><stop offset=".269" stop-color="#32294D" stop-opacity=".855"/><stop offset="1" stop-color="#fff" stop-opacity="0"/></linearGradient><linearGradient id="paint2_linear" x1="36.633" x2="47.151" y1="33.344" y2="56.749" gradientUnits="userSpaceOnUse"><stop stop-color="#0F052F"/><stop offset=".269" stop-color="#32294D" stop-opacity=".855"/><stop offset="1" stop-color="#fff" stop-opacity="0"/></linearGradient><filter id="filter0_d" width="46.207" height="47.593" x=".764" y="20.598" color-interpolation-filters="sRGB" filterUnits="userSpaceOnUse"><feFlood flood-opacity="0" result="BackgroundImageFix"/><feColorMatrix in="SourceAlpha" values="0 0 0 0 0 0 0 0 0 0 0 0 0 0 0 0 0 0 127 0"/><feOffset dy="4"/><feGaussianBlur stdDeviation="5"/><feColorMatrix values="0 0 0 0 0 0 0 0 0 0 0 0 0 0 0 0 0 0 0.25 0"/><feBlend in2="BackgroundImageFix" result="effect1_dropShadow"/><feBlend in="SourceGraphic" in2="effect1_dropShadow" result="shape"/></filter><filter id="filter1_d" width="46.219" height="47.607" x="26.681" y="20.633" color-interpolation-filters="sRGB" filterUnits="userSpaceOnUse"><feFlood flood-opacity="0" result="BackgroundImageFix"/><feColorMatrix in="SourceAlpha" values="0 0 0 0 0 0 0 0 0 0 0 0 0 0 0 0 0 0 127 0"/><feOffset dy="4"/><feGaussianBlur stdDeviation="5"/><feColorMatrix values="0 0 0 0 0 0 0 0 0 0 0 0 0 0 0 0 0 0 0.25 0"/><feBlend in2="BackgroundImageFix" result="effect1_dropShadow"/><feBlend in="SourceGraphic" in2="effect1_dropShadow" result="shape"/></filter></defs></svg>