<?xml version="1.0" encoding="utf-8"?>
<!-- Generator: Adobe Illustrator 16.0.0, SVG Export Plug-In . SVG Version: 6.00 Build 0)  -->
<!DOCTYPE svg PUBLIC "-//W3C//DTD SVG 1.1//EN" "http://www.w3.org/Graphics/SVG/1.1/DTD/svg11.dtd">
<svg version="1.1" id="Layer_1" xmlns="http://www.w3.org/2000/svg" xmlns:xlink="http://www.w3.org/1999/xlink" x="0px" y="0px"
	 width="800px" height="800px" viewBox="0 0 800 800" enable-background="new 0 0 800 800" xml:space="preserve">
<path fill="#555554" d="M454.592,390.768c5.065,5.062,5.065,13.277,0,18.356l-45.423,45.418c-5.07,5.065-13.286,5.065-18.356,0
	l-45.418-45.418c-5.062-5.079-5.062-13.295,0-18.356l45.418-45.414c5.07-5.065,13.286-5.065,18.356,0L454.592,390.768z"/>
<path fill="#AAAAAA" d="M169.244,438.536c-3.076,3.067-8.057,3.067-11.12,0l-33.025-33.026c-3.077-3.076-3.077-8.052,0-11.12
	l33.025-33.034c3.063-3.063,8.044-3.063,11.12,0l33.021,33.034c3.06,3.068,3.06,8.044,0,11.12L169.244,438.536z"/>
<path fill="#AAAAAA" d="M640.311,438.536c-3.08,3.067-8.048,3.067-11.124,0l-33.018-33.026c-3.081-3.076-3.081-8.052,0-11.12
	l33.018-33.034c3.076-3.063,8.044-3.063,11.124,0l33.018,33.034c3.072,3.068,3.072,8.044,0,11.12L640.311,438.536z"/>
<g>
	<path fill="#3C3C3A" d="M492.902,417.095c-0.859-0.873-2.406-0.873-3.262,0l-81.584,81.58c-4.268,4.271-11.727,4.245-15.941,0.03
		L206.434,306.939c-10.123-10.114-23.568-16.225-37.859-17.204c-17.028-1.088-33.825,5.049-45.998,17.204l-51.077,51.077
		c-11.188,11.202-17.351,26.1-17.351,41.934c0,1.898,0.082,3.785,0.271,5.676c1.307,13.664,7.369,26.537,17.08,36.248l51.077,51.068
		c2.136,2.136,4.443,4.125,6.866,5.904c10.214,7.511,22.34,11.481,35.071,11.481c7.674,0,15.172-1.466,22.301-4.353
		c7.378-2.995,13.978-7.387,19.628-13.033l50.651-50.643c0.438-0.438,0.68-1.022,0.68-1.637c0-0.615-0.241-1.199-0.68-1.633
		l-18.098-18.104c-0.43-0.434-1.225-0.464-1.844-0.464c-0.614,0-1.409,0.464-1.848,0.894l-49.023,49.02
		c-1.993,2.006-4.249,3.712-6.896,5.178c-7.944,5.379-18.661,5.844-27.307,0.795c-3.158-1.491-6.002-3.502-8.473-5.978l-49.02-49.01
		c-3.11-3.103-5.448-6.764-7.017-10.975c-2.286-5.371-2.681-11.412-1.065-17.118c1.268-5.526,4.061-10.579,8.082-14.605
		l49.02-49.015c4.937-4.941,11.485-8.035,18.498-8.705c2.724-0.335,5.461-0.211,8.25,0.36c6.063,1.096,11.566,3.979,15.902,8.319
		l186.171,194.469c7.24,7.236,16.874,11.908,27.53,11.908c0.004,0,0.511,0,0.523,0c2.299,0,4.633-0.891,6.932-1.316
		c3.733-0.683,7.343-2.248,10.712-3.988c3.48-1.805,6.66-4.318,9.444-7.099l84.201-84.294c0.902-0.902,0.902-2.398-0.004-3.301
		L492.902,417.095z"/>
	<path fill="#3C3C3A" d="M728.482,358.017l-51.076-51.077c-10.441-10.45-24.325-16.59-39.08-17.29c-1.878-0.091-3.795-0.091-5.686,0
		c-14.751,0.7-28.634,6.84-39.08,17.29l-50.668,50.66c-0.898,0.907-0.898,2.363,0,3.266l18.103,18.107
		c0.868,0.868,2.818,0.43,3.695-0.438l49.001-49.027c1.998-1.989,4.259-3.691,6.923-5.174c7.937-5.375,18.627-5.83,27.302-0.79
		c3.154,1.491,6.008,3.502,8.479,5.964l49.022,49.027c3.103,3.103,5.444,6.768,7.009,10.987c2.277,5.332,2.664,11.36,1.057,17.093
		c-1.259,5.534-4.043,10.583-8.065,14.601l-49.022,49.023c-4.95,4.95-11.512,8.044-18.507,8.71c-2.746,0.322-5.505,0.215-8.25-0.365
		c-6.05-1.088-11.563-3.971-15.907-8.311L427.568,276.471c-2.367-2.363-4.997-4.396-7.829-6.042
		c-4.868-2.831-10.402-4.697-16.022-5.174c-1.092-0.094-2.2-0.254-3.296-0.254h-0.847c-1.1,0-2.204,0.161-3.296,0.254
		c-5.087,0.438-9.938,1.896-14.403,4.225c-3.472,1.796-6.651,4.155-9.448,6.956l-84.202,84.217c-0.902,0.897-0.902,2.369,0,3.275
		l18.859,18.864c0.906,0.898,2.372,0.905,3.27,0.007l81.59-81.586c4.267-4.271,11.713-4.239,15.945-0.023l185.668,191.753
		c11.202,11.215,26.091,17.386,41.929,17.386c15.843,0,30.731-6.171,41.921-17.386l51.072-51.063
		c9.724-9.716,15.795-22.589,17.098-36.253c0.176-1.895,0.274-3.781,0.274-5.676C745.851,384.12,739.681,369.231,728.482,358.017z"
		/>
</g>
<path fill="#D3D3D3" d="M369.693,451.985c-0.498-0.15-0.799-0.383-0.838-0.478c-0.137-0.296-0.24-0.82,0.563-1.744l28.626-36.36
	c0.395-0.602,0.498-1.5,0.163-2.127l-16.066-23.169c-0.976-1.345-0.661-3.325,0.666-4.327l46.08-35.367
	c0.786-0.623,1.16-0.623,1.298-0.623c0.352,0,0.765,0.249,0.937,0.576c0.267,0.507,0.021,1.01-0.49,1.74l-28.694,36.377
	c-0.477,0.645-0.477,1.736-0.025,2.354l15.688,22.576c0.344,1.083,0.915,3.699-0.408,4.705l-46.066,35.337
	c-0.447,0.357-0.791,0.58-1.187,0.641C369.853,452.036,369.779,452.002,369.693,451.985z"/>
<path fill="#303030" d="M412.585,527.584c-3.192,1.663-6.578,2.811-10.05,3.442C406.007,530.395,409.393,529.247,412.585,527.584z"
	/>
</svg>
