<svg width='29px' height='29px' fill="current" xmlns="http://www.w3.org/2000/svg">
  <path d="M13.66 3.9a9.48 9.48 0 000 18.95 9.48 9.48 0 000-18.94zM8.01 14.54c.1 1.52.42 2.96.93 4.21a7.15 7.15 0 01-2.34-4.2H8zm.93-6.52c-.5 1.25-.83 2.69-.93 4.2H6.6a7.15 7.15 0 012.33-4.2zm3.57 6.52v5.54a5.32 5.32 0 01-1.39-2.12c-.4-1-.68-2.2-.79-3.42h2.18zm0-2.31h-2.18c.11-1.4.42-2.6.85-3.57.38-.86.84-1.52 1.33-1.93v5.5zm6.81 0c-.1-1.52-.42-2.96-.93-4.21a7.15 7.15 0 012.34 4.2h-1.4zm-4.5 0V6.68c.54.45 1.02 1.2 1.39 2.12.4 1 .68 2.2.79 3.42h-2.18zm1.33 5.88a5.36 5.36 0 01-1.33 1.93v-5.5H17a11.2 11.2 0 01-.85 3.57zm3.17-3.57h1.4a7.15 7.15 0 01-2.33 4.21c.5-1.25.83-2.69.93-4.2z" fill="current" stroke="#0F052F" stroke-width=".3"/>
  <path d="M24.59 21.1C30.79 12.37 24.6 0 13.66 0 6.3 0 .3 6 .3 13.38c0 9.68 10 16.13 18.78 12.24l6.21 3.16a1 1 0 001.42-1.21l-2.11-6.47zm-5.05 2.5a1 1 0 00-.9-.01 11.37 11.37 0 11-4.98-21.57c9.47 0 14.71 10.88 9.01 18.28a1 1 0 00-.16.93l1.52 4.65-4.49-2.28z" fill="current"/>
</svg>
