<svg xmlns="http://www.w3.org/2000/svg" fill="none" viewBox="0 0 47 47"><g fill="#3CCDD7" clip-path="url(#clip0)"><path d="M23.1651 22.6401c3.1103 0 5.8036-1.1155 8.0042-3.3165 2.2007-2.2006 3.3162-4.8932 3.3162-8.0039 0-3.1096-1.1155-5.8026-3.3165-8.0039C28.968 1.1155 26.2751 0 23.1651 0c-3.1107 0-5.8033 1.1156-8.0039 3.3162-2.2006 2.2006-3.3165 4.8935-3.3165 8.0035 0 3.1107 1.1159 5.8036 3.3168 8.0043 2.201 2.2002 4.894 3.3161 8.0036 3.3161zM42.9728 36.1407c-.0635-.9158-.1919-1.9148-.3808-2.9697-.1908-1.0629-.4364-2.0676-.7305-2.986-.3037-.9491-.7168-1.8865-1.2274-2.7847-.53-.9323-1.1525-1.7441-1.851-2.4122-.7304-.6989-1.6247-1.2608-2.6589-1.6706-1.0305-.4077-2.1726-.6143-3.3943-.6143-.4798 0-.9438.1969-1.8399.7803-.5515.3597-1.1966.7756-1.9166 1.2357-.6157.3923-1.4498.7598-2.48 1.0926-1.0051.3252-2.0256.4902-3.0328.4902-1.0073 0-2.0275-.165-3.0336-.4902-1.0292-.3324-1.8632-.7-2.4782-1.0923a263.1601 263.1601 0 01-1.9184-1.2363c-.895-.5835-1.3594-.7803-1.8392-.7803-1.222 0-2.3637.2069-3.394.6149-1.0334.4092-1.928.9711-2.6592 1.6707-.6982.6684-1.321 1.4798-1.8503 2.4118-.5102.8982-.9233 1.8352-1.2274 2.7851-.2937.9183-.5393 1.9227-.73 2.9856-.189 1.0535-.3174 2.0528-.3809 2.9708a40.2773 40.2773 0 00-.094 2.7754c0 2.4534.78 4.4396 2.318 5.9044 1.5189 1.4455 3.5287 2.1788 5.9728 2.1788H34.777c2.4441 0 4.4533-.733 5.9726-2.1788 1.5383-1.4637 2.3182-3.4502 2.3182-5.9047-.0004-.9471-.0323-1.8812-.095-2.7762z"/></g><defs><clipPath id="clip0"><path fill="#fff" d="M0 0h47v47.0002H0z"/></clipPath></defs></svg>